# xmcd
# Copyright (C) 1995-1998 Ti Kan
#
# Track frame offsets:
#       150
#       22727
#       27661
#       60314
#       67655
#       91930
#       94131
#       106312
#       130498
#       137518
#       154778
#
# Disc length: 2414 seconds
#
# Revision: 0
# Processed by: cddbd v1.5.2PL0 Copyright (c) Steve Scherf et al.
# Submitted via: CD-Import v1.0
#
DISCID=82096c0b
DTITLE=Caribou - The Milk Of Human Kindness
DYEAR=05
DGENRE=
TTITLE0=Yeti
TTITLE1=Subotnick
TTITLE2=A Final Warning
TTITLE3=Lord Leopard
TTITLE4=Bees
TTITLE5=Hands First
TTITLE6=Hello Hammerheads
TTITLE7=Brahminy Kite
TTITLE8=Drumheller
TTITLE9=Pelican Narrows
TTITLE10=Barnowl
EXTD=
EXTT0=
EXTT1=
EXTT2=
EXTT3=
EXTT4=
EXTT5=
EXTT6=
EXTT7=
EXTT8=
EXTT9=
EXTT10=
PLAYORDER=
